<svg version="1.1" id="Layer_1" xmlns="http://www.w3.org/2000/svg" xmlns:xlink="http://www.w3.org/1999/xlink" x="0px" y="0px" viewBox="0 0 24 24" enable-background="new 0 0 24 24" xml:space="preserve">
<path fill="#ffffff" d="M22.1464844,3.4040067l-1.5859375-1.5888114c-1.0849609-1.0869271-3.0361328-1.0869271-4.1210938,0
	l-4.5859375,4.5942478C11.3110352,6.9529066,11,7.7052441,11,8.4737244c0,0.7684793,0.3110352,1.5208168,0.8535156,2.0642805
	l0.4394531,0.4402494L11,12.2735662l-0.4394531-0.4402494c-1.0849609-1.0869274-3.0361328-1.0869274-4.1210938,0
	l-4.5859375,4.5942478C1.3110352,16.9710274,1,17.7233658,1,18.4918461c0,0.7684784,0.3110352,1.5208168,0.8535156,2.0642796
	l1.5859375,1.5888119C3.9819336,22.6884003,4.7329102,23,5.5,23s1.5180664-0.3115997,2.0605469-0.8550625l4.5859375-4.5942478
	C12.6889648,17.0072269,13,16.2548885,13,15.4864092c0-0.7684803-0.3110352-1.5208178-0.8535156-2.0642815l-0.4394531-0.4402494
	L13,11.6865673l0.4394531,0.4402494c0.5424805,0.5434628,1.293457,0.8550615,2.0605469,0.8550615
	s1.5180664-0.3115988,2.0605469-0.8550615l4.5859375-4.5942483C22.6889648,6.9891047,23,6.2367673,23,5.4682875
	S22.6889648,3.9474702,22.1464844,3.4040067z M11.4394531,14.1464844C11.7958984,14.5029297,12,14.9960938,12,15.5
	s-0.2041016,0.9970703-0.5605469,1.3535156l-4.5859375,4.5859375c-0.7128906,0.7128906-1.9941406,0.7128906-2.7070313,0
	l-1.5859375-1.5859375C2.2041016,19.4970703,2,19.0039063,2,18.5s0.2041016-0.9970703,0.5605469-1.3535156l4.5859375-4.5859375
	C7.5029297,12.2041016,7.9960938,12,8.5,12s0.9970703,0.2041016,1.3535156,0.5605469L10.2929688,13l-2.1464844,2.1464844
	c-0.1953125,0.1953125-0.1953125,0.5117188,0,0.7070313C8.2441406,15.9511719,8.3720703,16,8.5,16
	s0.2558594-0.0488281,0.3535156-0.1464844L11,13.7070313L11.4394531,14.1464844z M21.4394531,6.8535156l-4.5859375,4.5859375
	c-0.7128906,0.7128906-1.9941406,0.7128906-2.7070313,0L13.7070313,11l2.1464844-2.1464844
	c0.1953125-0.1953125,0.1953125-0.5117188,0-0.7070313s-0.5117188-0.1953125-0.7070313,0L13,10.2929688l-0.4394531-0.4394531
	C12.2041016,9.4970703,12,9.0039063,12,8.5s0.2041016-0.9970703,0.5605469-1.3535156l4.5859375-4.5859375
	C17.5029297,2.2041016,17.9960938,2,18.5,2s0.9970703,0.2041016,1.3535156,0.5605469l1.5859375,1.5859375
	C21.7958984,4.5029297,22,4.9960938,22,5.5S21.7958984,6.4970703,21.4394531,6.8535156z" id="id_101"></path>
<g>
</g>
<g>
</g>
<g>
</g>
<g>
</g>
<g>
</g>
<g>
</g>
<g>
</g>
<g>
</g>
<g>
</g>
<g>
</g>
<g>
</g>
<g>
</g>
<g>
</g>
<g>
</g>
<g>
</g>
</svg>