<svg version="1.1" id="Layer_3" xmlns="http://www.w3.org/2000/svg" xmlns:xlink="http://www.w3.org/1999/xlink" x="0px" y="0px" viewBox="0 0 64 64" style="enable-background:new 0 0 64 64;" xml:space="preserve">
<g>
<rect x="54" y="47" width="2" height="2" id="id_101" style="fill: rgb(252, 252, 252);"></rect>
<rect x="50" y="47" width="2" height="2" id="id_102" style="fill: rgb(255, 255, 255);"></rect>
<path d="M55,11h-3V5c0-2.206-1.794-4-4-4H16c-2.206,0-4,1.794-4,4v6H9c-2.757,0-5,2.243-5,5v32c0,2.757,2.243,5,5,5h14.613
		l-1.333,4H20c-1.654,0-3,1.346-3,3v2c0,0.553,0.447,1,1,1h28c0.553,0,1-0.447,1-1v-2c0-1.654-1.346-3-3-3h-2.28l-1.333-4H55
		c2.757,0,5-2.243,5-5V16C60,13.243,57.757,11,55,11z M14,5c0-1.103,0.897-2,2-2h32c1.103,0,2,0.897,2,2v26c0,1.103-0.897,2-2,2H16
		c-1.103,0-2-0.897-2-2V5z M16,35h32c2.206,0,4-1.794,4-4V17h2v26H10V17h2v14C12,33.206,13.794,35,16,35z M45,60v1H19v-1
		c0-0.552,0.448-1,1-1h24C44.552,59,45,59.448,45,60z M39.613,57H24.387l1.333-4H38.28L39.613,57z M58,48c0,1.654-1.346,3-3,3H9
		c-1.654,0-3-1.346-3-3V16c0-1.654,1.346-3,3-3h3v2H9c-0.553,0-1,0.448-1,1v28c0,0.553,0.447,1,1,1h46c0.553,0,1-0.447,1-1V16
		c0-0.552-0.447-1-1-1h-3v-2h3c1.654,0,3,1.346,3,3V48z" id="id_103" style="fill: rgb(250, 254, 255);"></path>
<path d="M20,31h12c0.553,0,1-0.448,1-1v-5h11c0.553,0,1-0.448,1-1V6c0-0.552-0.447-1-1-1H26c-0.553,0-1,0.448-1,1v11h-5
		c-0.553,0-1,0.448-1,1v12C19,30.552,19.447,31,20,31z M27,7h16v16H33v-5c0-0.552-0.447-1-1-1h-5V7z M27,19h4v4h-4V19z M21,19h4v5
		c0,0.552,0.447,1,1,1h5v4H21V19z" id="id_104" style="fill: rgb(255, 255, 255);"></path>
<path d="M34.707,16.707L38,13.414V15h2v-4c0-0.552-0.447-1-1-1h-4v2h1.586l-3.293,3.293L34.707,16.707z" id="id_105" style="fill: rgb(250, 254, 255);"></path>
</g>
</svg>