<svg width="43" height="43" viewBox="0 0 43 43" fill="none" xmlns="http://www.w3.org/2000/svg">
<rect x="0.398926" y="0.289795" width="42" height="42" rx="21" fill="#38cdeb" id="id_101"></rect>
<path d="M30.8489 28.6399H11.9489C11.3189 28.6399 10.8989 28.2199 10.8989 27.5899C10.8989 26.9599 11.3189 26.5399 11.9489 26.5399H30.8489C31.4789 26.5399 31.8989 26.9599 31.8989 27.5899C31.8989 28.2199 31.4789 28.6399 30.8489 28.6399ZM30.8489 22.3399H11.9489C11.3189 22.3399 10.8989 21.9199 10.8989 21.2899C10.8989 20.6599 11.3189 20.2399 11.9489 20.2399H30.8489C31.4789 20.2399 31.8989 20.6599 31.8989 21.2899C31.8989 21.9199 31.4789 22.3399 30.8489 22.3399ZM30.8489 16.0399H11.9489C11.3189 16.0399 10.8989 15.6199 10.8989 14.9899C10.8989 14.3599 11.3189 13.9399 11.9489 13.9399H30.8489C31.4789 13.9399 31.8989 14.3599 31.8989 14.9899C31.8989 15.6199 31.4789 16.0399 30.8489 16.0399Z" fill="white" id="id_102"></path>
</svg>